<svg width="512" height="512" viewBox="0 0 512 512" fill="none" xmlns="http://www.w3.org/2000/svg">
  <path d="M32 128C32 92.6538 60.6538 64 96 64H198.2C212.7 64 226.4 70.3 235.9 81.2L256.2 104.5C264.7 114.2 277.1 119.8 290 119.8H444C479.3 119.8 508 148.5 508 183.8V380C508 417.6 477.6 448 440 448H96C58.4 448 28 417.6 28 380V128H32Z" fill="#2F6DFF"/>
  <path d="M146.2 206.8C153.9 176.9 181 156 212 156H445C485.7 156 515.4 194.7 505.1 234L464.8 388C457.8 414.8 433.6 433.5 405.9 433.5H80.6C42.2 433.5 13.8 397.8 25.1 361.1L146.2 206.8Z" fill="#4A98FF"/>
</svg>
