<?xml version="1.0" standalone="no"?>
<svg version="1.0" xmlns="http://www.w3.org/2000/svg" viewBox="380 230 370 365" preserveAspectRatio="xMidYMid meet">
<g transform="translate(0.000000,822.000000) scale(0.100000,-0.100000)" fill="#000000" stroke="none">
<path d="M3860 5280 l0 -590 538 -1 c342 -1 521 -4 492 -10 -200 -39 -278 -65
-410 -136 -218 -116 -382 -286 -494 -511 -49 -97 -103 -261 -116 -348 -5 -40
-10 -336 -10 -711 l0 -643 580 0 580 0 1 528 c1 478 3 521 15 457 46 -229 169
-465 327 -627 164 -167 366 -279 602 -330 97 -22 117 -22 760 -23 l660 0 0
580 0 580 -535 5 c-366 3 -514 8 -470 14 364 48 711 301 884 644 85 168 120
328 119 537 -1 163 -20 285 -64 411 -94 269 -262 476 -501 615 -136 80 -379
149 -522 149 l-66 0 -2 -547 c-2 -304 -6 -526 -11 -498 -43 283 -157 515 -347
705 -179 180 -407 293 -665 330 -40 5 -339 10 -707 10 l-638 0 0 -590z m2365
-1185 l0 -590 -602 -3 -603 -2 0 595 0 595 603 -2 602 -3 0 -590z"/>
</g>
</svg>
