<?xml version="1.0" standalone="no"?>
<!DOCTYPE svg PUBLIC "-//W3C//DTD SVG 20010904//EN"
 "http://www.w3.org/TR/2001/REC-SVG-20010904/DTD/svg10.dtd">
<svg version="1.0" xmlns="http://www.w3.org/2000/svg"
 width="1912.000000pt" height="822.000000pt" viewBox="0 0 1912.000000 822.000000"
 preserveAspectRatio="xMidYMid meet">
<g transform="translate(0.000000,822.000000) scale(0.100000,-0.100000)"
fill="#000000" stroke="none">
<path d="M3860 5280 l0 -590 538 -1 c342 -1 521 -4 492 -10 -200 -39 -278 -65
-410 -136 -218 -116 -382 -286 -494 -511 -49 -97 -103 -261 -116 -348 -5 -40
-10 -336 -10 -711 l0 -643 580 0 580 0 1 528 c1 478 3 521 15 457 46 -229 169
-465 327 -627 164 -167 366 -279 602 -330 97 -22 117 -22 760 -23 l660 0 0
580 0 580 -535 5 c-366 3 -514 8 -470 14 364 48 711 301 884 644 85 168 120
328 119 537 -1 163 -20 285 -64 411 -94 269 -262 476 -501 615 -136 80 -379
149 -522 149 l-66 0 -2 -547 c-2 -304 -6 -526 -11 -498 -43 283 -157 515 -347
705 -179 180 -407 293 -665 330 -40 5 -339 10 -707 10 l-638 0 0 -590z m2365
-1185 l0 -590 -602 -3 -603 -2 0 595 0 595 603 -2 602 -3 0 -590z"/>
<path d="M9620 5024 c-232 -43 -379 -110 -518 -239 -128 -119 -229 -299 -268
-480 -25 -117 -23 -323 4 -437 85 -351 329 -591 687 -674 62 -15 116 -19 240
-18 139 1 173 5 260 27 341 90 570 333 651 692 26 114 24 309 -5 435 -44 195
-170 397 -318 509 -171 128 -330 181 -563 186 -80 2 -156 2 -170 -1z m311
-279 c167 -43 323 -171 397 -326 50 -106 72 -202 72 -321 0 -125 -21 -216 -72
-318 -80 -159 -246 -291 -418 -331 -79 -18 -242 -16 -320 5 -362 95 -558 469
-447 853 51 177 160 309 320 388 149 74 308 91 468 50z"/>
<path d="M11108 4673 l-3 -178 -132 -3 -133 -3 0 -114 0 -114 133 -3 132 -3 5
-415 5 -415 28 -57 c63 -129 169 -180 372 -181 66 0 135 3 153 7 l32 8 0 118
0 118 -103 -5 c-130 -7 -170 8 -198 73 -18 39 -19 69 -17 396 l3 353 158 3
157 3 0 114 0 115 -160 0 -160 0 0 180 0 180 -135 0 -135 0 -2 -177z"/>
<path d="M12060 4777 c0 -41 -3 -122 -7 -180 l-6 -107 -129 0 -128 0 0 -117 0
-118 129 3 129 3 4 -43 c3 -24 6 -200 7 -393 1 -192 6 -370 12 -393 31 -141
127 -219 294 -242 78 -10 258 0 274 15 3 4 8 58 9 120 l4 114 -104 -6 c-121
-7 -166 7 -198 59 -19 32 -20 50 -20 401 l0 368 158 -2 157 -1 3 84 c2 45 0
98 -3 116 l-6 32 -154 0 -155 0 0 180 0 180 -135 0 -135 0 0 -73z"/>
<path d="M13295 4514 c-152 -25 -263 -81 -365 -184 -128 -128 -181 -272 -181
-485 1 -376 205 -621 553 -665 255 -31 493 63 624 246 144 201 166 517 52 753
-75 156 -239 286 -406 320 -61 13 -233 22 -277 15z m238 -260 c140 -49 224
-182 235 -371 8 -160 -23 -266 -105 -354 -58 -63 -120 -95 -208 -109 -128 -20
-246 19 -328 110 -139 155 -135 480 8 638 87 97 260 134 398 86z"/>
</g>
</svg>
